<?xml version="1.0" encoding="UTF-8"?> <svg xmlns="http://www.w3.org/2000/svg" width="248" height="40" viewBox="0 0 248 40" fill="none"> <g clip-path="url(#clip0_62_607)"> <path d="M68.7637 24.104C70.3917 24.4335 71.6224 25.0053 72.456 25.8193C73.2895 26.614 73.7061 27.7576 73.7061 29.2501V29.3664C73.7061 31.5566 72.7951 33.1071 70.9732 34.0182C69.1707 34.9099 66.5735 35.3653 63.1815 35.3846H63.1234H61.9895H46.1151V13.87H64.5187C66.7671 13.8894 68.56 14.3546 69.8975 15.2655C71.2347 16.1765 71.9037 17.4655 71.9037 19.1324V19.2487C71.9037 20.5085 71.6418 21.5358 71.1184 22.3305C70.5954 23.1252 69.8101 23.7163 68.7637 24.104ZM61.1461 22.3014C62.1154 22.3014 62.8227 22.282 63.2686 22.2433C63.7338 22.1851 64.1215 22.0107 64.4317 21.7199C64.7612 21.4292 64.9258 20.9446 64.9258 20.2662C64.9258 19.646 64.7707 19.2002 64.4606 18.9289C64.1504 18.6575 63.7532 18.4927 63.2686 18.4346C62.784 18.3571 62.0766 18.3183 61.1461 18.3183H61.1172H52.8311V22.2723C54.8277 22.2723 56.1455 22.282 56.7852 22.3014H58.1806H61.1461ZM62.1058 30.5293C63.1911 30.5293 64.0052 30.5002 64.548 30.4421C65.0907 30.3645 65.5267 30.1707 65.8563 29.8606C66.1858 29.5311 66.3504 29.0175 66.3504 28.3197C66.3504 27.6413 66.1858 27.1567 65.8563 26.866C65.5267 26.5559 65.0907 26.3717 64.548 26.3136C64.0052 26.2361 63.1911 26.1973 62.1058 26.1973H62.0766H52.8311V30.5002C55.564 30.5002 57.5024 30.5099 58.6458 30.5293C59.8089 30.5293 60.6037 30.5293 61.0298 30.5293H62.1058ZM96.9569 28.1162H81.4606C81.5963 29.3373 82.052 30.3452 82.8271 31.1397C83.6218 31.9151 84.6975 32.3028 86.0544 32.3028C87.1591 32.3028 88.1381 32.0413 88.9907 31.5179C89.8631 30.9751 90.299 30.1513 90.299 29.0465H96.9569C96.9569 31.2948 95.988 33.0102 94.0495 34.1926C92.1308 35.3751 89.456 35.9662 86.0252 35.9662C83.9126 35.9662 81.9938 35.6074 80.2686 34.8905C78.5437 34.1733 77.1772 33.1653 76.1692 31.8668C75.1612 30.5487 74.6575 29.0465 74.6575 27.3603C74.6575 25.6546 75.1517 24.1525 76.1403 22.8538C77.148 21.5358 78.5144 20.5279 80.2397 19.8301C81.984 19.113 83.9126 18.7544 86.0252 18.7544C88.196 18.7544 90.0957 19.1033 91.7237 19.8011C93.3714 20.4988 94.6504 21.4873 95.5615 22.7666C96.4726 24.0265 96.9375 25.5092 96.9569 27.2149V27.3603V28.1162ZM86.0252 22.3014C84.7461 22.3014 83.7674 22.5728 83.0889 23.1155C82.4104 23.6582 81.9452 24.4141 81.6932 25.3833H90.1246C89.9114 24.4141 89.4852 23.6582 88.8455 23.1155C88.2058 22.5728 87.2658 22.3014 86.0252 22.3014ZM111.494 19.0161C113.878 19.0161 115.72 19.7817 117.018 21.3129C118.337 22.8441 118.995 25.3542 118.995 28.843V35.3846H112.309V28.9302C112.309 27.7091 112.241 26.7109 112.105 25.9357C111.969 25.1603 111.64 24.511 111.117 23.9877C110.593 23.4644 109.779 23.2027 108.674 23.2027C107.511 23.2027 106.649 23.4547 106.087 23.9586C105.525 24.4432 105.166 25.0731 105.011 25.8484C104.856 26.6237 104.778 27.6413 104.778 28.9012V35.3846H98.0914V19.5394H104.778V21.5164C106.251 19.8495 108.49 19.0161 111.494 19.0161ZM133.754 19.0161C136.138 19.0161 137.979 19.7817 139.278 21.3129C140.596 22.8441 141.255 25.3542 141.255 28.843V35.3846H134.568V28.9302C134.568 27.7091 134.5 26.7109 134.365 25.9357C134.229 25.1603 133.899 24.511 133.376 23.9877C132.853 23.4644 132.039 23.2027 130.934 23.2027C129.771 23.2027 128.908 23.4547 128.346 23.9586C127.784 24.4432 127.426 25.0731 127.271 25.8484C127.116 26.6237 127.038 27.6413 127.038 28.9012V35.3846H120.351V19.5394H127.038V21.5164C128.511 19.8495 130.75 19.0161 133.754 19.0161ZM156.828 19.5394H163.515V35.3846H156.828V33.4077C155.355 35.0745 153.116 35.908 150.112 35.908C147.728 35.908 145.877 35.1425 144.559 33.6111C143.26 32.08 142.611 29.5699 142.611 26.081V19.5394H149.298V25.9938C149.298 27.2149 149.366 28.2131 149.501 28.9884C149.637 29.7637 149.966 30.413 150.49 30.9363C151.013 31.4597 151.827 31.7213 152.932 31.7213C154.463 31.7213 155.49 31.1979 156.014 30.1513C156.556 29.0853 156.828 27.6995 156.828 25.9938V19.5394Z" fill="#4EADEA"></path> <path d="M179.926 13.87H186.614V35.3264H180.508L180.159 33.4366C178.512 35.0261 175.934 35.7818 172.426 35.7043C170.933 35.7043 169.605 35.3363 168.442 34.5997C167.299 33.8437 166.398 32.8261 165.738 31.5468C165.079 30.2482 164.74 28.8042 164.721 27.2148V27.1276V27.0404C164.76 25.6643 165.099 24.3559 165.738 23.1154C166.378 21.875 167.279 20.8768 168.442 20.1208C169.605 19.3455 170.933 18.9579 172.426 18.9579C175.779 18.9579 178.279 19.7138 179.926 21.2256V13.87ZM175.798 31.7794C176.573 31.7794 177.271 31.5855 177.891 31.1978C178.531 30.7911 179.025 30.2579 179.374 29.5989C179.742 28.9399 179.926 28.2324 179.926 27.4765V27.3893C179.926 26.0325 179.539 24.9471 178.764 24.133C178.008 23.319 177.019 22.9119 175.798 22.9119C174.422 22.9119 173.356 23.3384 172.6 24.1912C171.863 25.0246 171.486 26.0228 171.466 27.1858C171.486 28.5232 171.863 29.628 172.6 30.5002C173.336 31.3529 174.402 31.7794 175.798 31.7794ZM198.678 18.8416C201.449 18.8416 203.94 19.3068 206.15 20.2371C208.359 21.1675 209.464 22.8053 209.464 25.1506V35.3846H203.126L202.632 33.3203V33.1751C202.147 34.0471 201.12 34.6868 199.55 35.0938C197.999 35.5009 196.303 35.7043 194.462 35.7043C192.989 35.7043 191.516 35.3846 190.043 34.7449C188.57 34.0858 187.833 32.7194 187.833 30.6456C187.833 27.3699 189.975 25.7321 194.258 25.7321C197.011 25.7321 198.93 25.7127 200.015 25.674C201.1 25.6158 201.818 25.5189 202.166 25.3832C202.515 25.2281 202.699 24.9568 202.719 24.5691V24.1912C202.699 23.5516 202.273 23.0864 201.44 22.7956C200.626 22.4855 199.695 22.3304 198.649 22.3304C197.563 22.3498 196.633 22.5533 195.858 22.941C195.102 23.3287 194.723 23.9198 194.723 24.7145H188.007C188.007 23.2414 188.589 22.0688 189.752 21.1966C190.915 20.305 192.301 19.6944 193.91 19.3649C195.538 19.016 197.127 18.8416 198.678 18.8416ZM198.242 31.4597C199.676 31.4597 200.761 31.1397 201.498 30.5002C202.234 29.8606 202.632 29.0465 202.69 28.058V27.651C201.953 27.9611 200.781 28.1161 199.172 28.1161C197.505 28.1161 196.332 28.2324 195.654 28.465C194.995 28.6976 194.656 29.124 194.636 29.7443C194.694 30.3257 194.995 30.7619 195.538 31.0526C196.1 31.324 197.001 31.4597 198.242 31.4597ZM220.69 19.5394H223.714V24.104H220.69V35.3846H214.003V24.104H210.834V19.5394H214.003V16.1087L220.69 13.4048V19.5394ZM235.673 18.8416C238.445 18.8416 240.935 19.3068 243.145 20.2371C245.354 21.1675 246.459 22.8053 246.459 25.1506V35.3846H240.121L239.627 33.3203V33.1751C239.142 34.0471 238.115 34.6868 236.545 35.0938C234.994 35.5009 233.298 35.7043 231.457 35.7043C229.984 35.7043 228.511 35.3846 227.038 34.7449C225.565 34.0858 224.828 32.7194 224.828 30.6456C224.828 27.3699 226.97 25.7321 231.254 25.7321C234.006 25.7321 235.925 25.7127 237.01 25.674C238.096 25.6158 238.813 25.5189 239.162 25.3832C239.511 25.2281 239.695 24.9568 239.714 24.5691V24.1912C239.695 23.5516 239.268 23.0864 238.435 22.7956C237.621 22.4855 236.69 22.3304 235.644 22.3304C234.558 22.3498 233.628 22.5533 232.853 22.941C232.097 23.3287 231.719 23.9198 231.719 24.7145H225.003C225.003 23.2414 225.584 22.0688 226.747 21.1966C227.91 20.305 229.296 19.6944 230.905 19.3649C232.533 19.016 234.122 18.8416 235.673 18.8416ZM235.237 31.4597C236.671 31.4597 237.757 31.1397 238.493 30.5002C239.23 29.8606 239.627 29.0465 239.685 28.058V27.651C238.949 27.9611 237.776 28.1161 236.167 28.1161C234.5 28.1161 233.328 28.2324 232.649 28.465C231.99 28.6976 231.651 29.124 231.632 29.7443C231.69 30.3257 231.99 30.7619 232.533 31.0526C233.095 31.324 233.996 31.4597 235.237 31.4597Z" fill="#1B4481"></path> <path fill-rule="evenodd" clip-rule="evenodd" d="M0 30.4687L6.06978 28.241L14.9702 26.4567L13.4644 30.6556L16.9744 39.4394H15.8102C15.6694 39.4394 15.5287 39.5794 15.5287 39.7197C15.5287 39.8597 15.6694 40 15.8102 40H20.1263C20.267 40 20.3609 39.8597 20.4078 39.7197C20.4078 39.5794 20.267 39.4394 20.1263 39.4394H17.5655L14.1192 30.7685L19.4685 27.2883L19.751 30.1417L25.5859 39.4394H24.5831C24.4424 39.4394 24.3017 39.5794 24.3017 39.7197C24.3017 39.8597 24.4424 40 24.5831 40H28.8054C28.9462 40 29.0869 39.8597 29.0869 39.7197C29.0869 39.5794 28.9462 39.4394 28.8054 39.4394H26.1846L20.3471 30.0831L25.0678 24.4324L27.5857 23.9276L27.7264 23.8809L32.5585 14.3496L24.1609 10.5184L24.4893 9.86428H38.5166C38.8452 9.86428 38.8452 9.39708 38.5637 9.35035L29.0655 7.54198L28.1486 5.84619L23.035 7.1077L19.8917 11.4061L22.1436 12.7611L25.7502 14.7631L24.5362 15.8915L21.393 14.1627L0 30.4687ZM3.10745 28.6886L2.74876 28.9619L3.1724 28.8065L3.10745 28.6886ZM13.6417 24.8759L19.2033 19.8707L12.6669 21.4981L12.6653 21.4887L3.19018 28.6933L13.6417 24.8759ZM27.398 23.4137L30.448 17.3707L26.2386 15.0341L25.0523 16.1718L27.2104 17.3398L24.6227 20.0763L24.6301 20.0964L24.5932 20.1075L22.6597 22.1522L9.28677 27.0603L27.398 23.4137ZM24.2282 24.6007L23.2557 24.7957L23.2695 24.8154L19.9585 26.9695L20.2071 29.3754L24.2282 24.6007ZM35.7366 9.39708H36.3105L35.7465 9.28967L35.7366 9.39708ZM29.3846 8.13213L30.018 9.30364H35.7018L29.3846 8.13213ZM13.7775 20.6431L20.0478 19.1107L23.5494 15.9594L21.4399 14.8168L13.7775 20.6431ZM18.2634 21.4326L24.312 19.6215L26.319 17.48L24.114 16.2652L24.0461 16.2284L20.3526 19.5524L20.3609 19.5825L20.3032 19.5968L18.2634 21.4326ZM14.9808 24.3868L22.3782 21.685L23.5684 20.415L17.3114 22.2924L17.3112 22.2896L14.9808 24.3868ZM23.7853 10.9017L21.0177 11.4604L22.4251 12.2939L30.6838 16.9034L31.8548 14.5832L23.7853 10.9017ZM24.2078 9.30364H29.4207L27.8672 6.45358L23.3634 7.62164L20.9237 10.9465L23.6406 10.398L24.2078 9.30364ZM28.1443 8.00527C27.9926 7.52302 27.5413 7.19041 27.0159 7.15715C26.9871 7.15533 26.9581 7.15441 26.9289 7.15441C26.6783 7.15441 26.4463 7.22844 26.2495 7.35591C26.0041 7.51487 25.8132 7.75693 25.7091 8.04213V8.60281H28.2425L28.1956 8.27573C28.1921 8.22798 28.186 8.18124 28.1772 8.13558C28.1686 8.09105 28.1577 8.04758 28.1443 8.00527ZM27.5857 8.04213H26.319C26.4128 7.85524 26.6474 7.71508 26.9289 7.71508C27.2104 7.71508 27.4449 7.85524 27.5857 8.04213ZM15.5817 26.3341L14.3174 29.9586L21.8067 25.0862L15.5817 26.3341Z" fill="#1B4481"></path> </g> <defs> <clipPath id="clip0_62_607"> <rect width="247.385" height="40" fill="white"></rect> </clipPath> </defs> </svg> 